# xmcd
#
# Track frame offsets:
#  150
#  13475
#  31085
#  51045
#  67825
#  85062
#  100332
#  116660
#  134625
#  148000
#  163117
#  179740
#
# Disc length: 2689 seconds
#
# Revision: 4
# Processed by: cddbd v1.5.1PL2 Copyright (c) Steve Scherf et al.
# Submitted via: Collectorz.com Music Collector 6.9
#
DISCID=aa0a7f0c
DTITLE=Tania Kernaghan - Dancing On Water
DYEAR=1999
DGENRE=Country
TTITLE0=True Country
TTITLE1=When I Ride
TTITLE2=Tell Him He's Dreaming
TTITLE3=Cowboy Up
TTITLE4=Like The Sun Dances On Water
TTITLE5=Dunroamin' Station
TTITLE6=Sandy Creek
TTITLE7=Rain On A Tin Roof
TTITLE8=Chasin' The Train
TTITLE9=If You're Leavin'
TTITLE10=Goin' Off
TTITLE11=High Waving Heather
EXTD=
EXTT0=
EXTT1=
EXTT2=
EXTT3=
EXTT4=
EXTT5=
EXTT6=
EXTT7=
EXTT8=
EXTT9=
EXTT10=
EXTT11=
PLAYORDER=
